<svg width="180" height="180" viewBox="0 0 180 180" fill="none" xmlns="http://www.w3.org/2000/svg">
<path fill-rule="evenodd" clip-rule="evenodd" d="M90 165.77C120.376 165.77 145 159.112 145 150.899C145 142.685 120.376 136.027 90 136.027C59.6243 136.027 35 142.685 35 150.899C35 159.112 59.6243 165.77 90 165.77ZM90 155.341C99.0973 155.341 106.472 152.66 106.472 149.354C106.472 146.047 99.0973 143.366 90 143.366C80.9027 143.366 73.5279 146.047 73.5279 149.354C73.5279 152.66 80.9027 155.341 90 155.341Z" fill="#F9A815"/>
<path fill-rule="evenodd" clip-rule="evenodd" d="M138.113 61.5136C138.113 72.7162 134.046 82.9938 127.27 91.0227L91.7203 150.975C90.9455 152.282 89.0545 152.282 88.2797 150.975L50.1184 86.6192C49.3047 85.3859 48.5492 84.1127 47.8557 82.8034L46.5773 80.6474C46.3687 80.2956 46.282 79.9193 46.2959 79.5558C43.8958 74.0078 42.5691 67.9116 42.5691 61.5136C42.5691 35.8249 63.9574 15 90.3413 15C116.725 15 138.113 35.8249 138.113 61.5136ZM90.3413 78.7901C99.7641 78.7901 107.403 71.3527 107.403 62.1781C107.403 53.0035 99.7641 45.5661 90.3413 45.5661C80.9185 45.5661 73.2798 53.0035 73.2798 62.1781C73.2798 71.3527 80.9185 78.7901 90.3413 78.7901Z" fill="#FFB62F"/>
</svg>
