<svg width="180" height="180" viewBox="0 0 180 180" fill="none" xmlns="http://www.w3.org/2000/svg">
<path fill-rule="evenodd" clip-rule="evenodd" d="M60.9816 19C47.2689 19 37.6234 32.4859 42.0546 45.4629L52.9632 77.4096C44.9082 86.2857 40 98.0697 40 111C40 138.614 62.3858 161 90 161C117.614 161 140 138.614 140 111C140 97.5456 134.686 85.3324 126.042 76.3449L136.79 45.6002C141.336 32.5979 131.685 19 117.911 19H60.9816ZM108.924 64.7054L117.911 39L60.9815 39L69.9255 65.1931C76.0698 62.4965 82.8601 61 90 61C96.6972 61 103.087 62.3167 108.924 64.7054Z" 
fill="#E74C3C"/>
<path d="M42.0546 45.4629L44.8936 44.4934L42.0546 45.4629ZM52.9632 77.4096L55.1848 79.4257L56.3742 78.1151L55.8023 76.4402L52.9632 77.4096ZM126.042 76.3449L123.21 75.3548L122.602 77.0954L123.88 78.4244L126.042 76.3449ZM136.79 45.6002L133.958 44.6101L133.958 44.6101L136.79 45.6002ZM117.911 39L120.743 39.99L122.137 36L117.911 36L117.911 39ZM108.924 64.7054L107.788 67.4819L110.713 68.6789L111.756 65.6954L108.924 64.7054ZM60.9815 39L60.9815 36L56.7871 36L58.1425 39.9694L60.9815 39ZM69.9255 65.1931L67.0865 66.1625L68.1415 69.2522L71.1311 67.9401L69.9255 65.1931ZM44.8936 44.4934C41.1271 33.463 49.3258 22 60.9816 22V16C45.212 16 34.1197 31.5088 39.2155 46.4323L44.8936 44.4934ZM55.8023 76.4402L44.8936 44.4934L39.2155 46.4323L50.1242 78.3791L55.8023 76.4402ZM43 111C43 98.8437 47.6112 87.7714 55.1848 79.4257L50.7416 75.3936C42.2053 84.8001 37 97.2956 37 111H43ZM90 158C64.0426 158 43 136.957 43 111H37C37 140.271 60.7289 164 90 164V158ZM137 111C137 136.957 115.957 158 90 158V164C119.271 164 143 140.271 143 111H137ZM123.88 78.4244C132.008 86.8756 137 98.3517 137 111H143C143 96.7396 137.364 83.7892 128.204 74.2653L123.88 78.4244ZM133.958 44.6101L123.21 75.3548L128.874 77.3349L139.622 46.5902L133.958 44.6101ZM117.911 22C129.618 22 137.822 33.5582 133.958 44.6101L139.622 46.5902C144.849 31.6376 133.751 16 117.911 16V22ZM60.9816 22H117.911V16H60.9816V22ZM115.079 38.01L106.092 63.7153L111.756 65.6954L120.743 39.99L115.079 38.01ZM60.9815 42L117.911 42L117.911 36L60.9815 36L60.9815 42ZM72.7646 64.2236L63.8206 38.0306L58.1425 39.9694L67.0865 66.1625L72.7646 64.2236ZM71.1311 67.9401C76.9026 65.4072 83.283 64 90 64V58C82.4373 58 75.237 59.5858 68.7199 62.446L71.1311 67.9401ZM90 64C96.3009 64 102.305 65.2383 107.788 67.4819L110.06 61.9288C103.869 59.3952 97.0935 58 90 58V64Z" 
fill="#95A5A6"/>
</svg>

